<mxfile host="app.diagrams.net" modified="2024-04-26T10:05:58.953Z" agent="Mozilla/5.0 (X11; Linux x86_64) AppleWebKit/537.36 (KHTML, like Gecko) Chrome/124.0.0.0 Safari/537.36" etag="nNyhXUMVL61MTh7g7-Lw" version="24.3.0" type="device">
  <diagram name="Page-1" id="QstAt_iUv-jLmHuZSIRQ">
    <mxGraphModel dx="875" dy="2256" grid="1" gridSize="10" guides="1" tooltips="1" connect="1" arrows="1" fold="1" page="1" pageScale="1" pageWidth="850" pageHeight="1100" math="0" shadow="0">
      <root>
        <mxCell id="0" />
        <mxCell id="1" parent="0" />
        <mxCell id="5Migwdwcm8lPXjOvwGc1-4" value="Creature&lt;div&gt;&amp;lt;&amp;lt;abstract&amp;gt;&amp;gt;&lt;/div&gt;" style="swimlane;fontStyle=1;align=center;verticalAlign=top;childLayout=stackLayout;horizontal=1;startSize=40;horizontalStack=0;resizeParent=1;resizeParentMax=0;resizeLast=0;collapsible=1;marginBottom=0;whiteSpace=wrap;html=1;" parent="1" vertex="1">
          <mxGeometry x="200" y="-140" width="390" height="308" as="geometry" />
        </mxCell>
        <mxCell id="JTOicDsAA7wBTVZqYbhQ-10" value="- name: string" style="text;strokeColor=none;fillColor=none;align=left;verticalAlign=top;spacingLeft=4;spacingRight=4;overflow=hidden;rotatable=0;points=[[0,0.5],[1,0.5]];portConstraint=eastwest;whiteSpace=wrap;html=1;" parent="5Migwdwcm8lPXjOvwGc1-4" vertex="1">
          <mxGeometry y="40" width="390" height="26" as="geometry" />
        </mxCell>
        <mxCell id="5Migwdwcm8lPXjOvwGc1-5" value="- health: int" style="text;strokeColor=none;fillColor=none;align=left;verticalAlign=top;spacingLeft=4;spacingRight=4;overflow=hidden;rotatable=0;points=[[0,0.5],[1,0.5]];portConstraint=eastwest;whiteSpace=wrap;html=1;" parent="5Migwdwcm8lPXjOvwGc1-4" vertex="1">
          <mxGeometry y="66" width="390" height="26" as="geometry" />
        </mxCell>
        <mxCell id="JTOicDsAA7wBTVZqYbhQ-28" value="- max_health: int" style="text;strokeColor=none;fillColor=none;align=left;verticalAlign=top;spacingLeft=4;spacingRight=4;overflow=hidden;rotatable=0;points=[[0,0.5],[1,0.5]];portConstraint=eastwest;whiteSpace=wrap;html=1;" parent="5Migwdwcm8lPXjOvwGc1-4" vertex="1">
          <mxGeometry y="92" width="390" height="26" as="geometry" />
        </mxCell>
        <mxCell id="5Migwdwcm8lPXjOvwGc1-6" value="" style="line;strokeWidth=1;fillColor=none;align=left;verticalAlign=middle;spacingTop=-1;spacingLeft=3;spacingRight=3;rotatable=0;labelPosition=right;points=[];portConstraint=eastwest;strokeColor=inherit;" parent="5Migwdwcm8lPXjOvwGc1-4" vertex="1">
          <mxGeometry y="118" width="390" height="8" as="geometry" />
        </mxCell>
        <mxCell id="5Migwdwcm8lPXjOvwGc1-7" value="+ Creature(name: string,&amp;nbsp;&lt;span style=&quot;border-color: var(--border-color);&quot;&gt;max_health&lt;/span&gt;: int)" style="text;strokeColor=none;fillColor=none;align=left;verticalAlign=top;spacingLeft=4;spacingRight=4;overflow=hidden;rotatable=0;points=[[0,0.5],[1,0.5]];portConstraint=eastwest;whiteSpace=wrap;html=1;" parent="5Migwdwcm8lPXjOvwGc1-4" vertex="1">
          <mxGeometry y="126" width="390" height="26" as="geometry" />
        </mxCell>
        <mxCell id="JTOicDsAA7wBTVZqYbhQ-19" value="+ decrease_health(amount: int): void" style="text;strokeColor=none;fillColor=none;align=left;verticalAlign=top;spacingLeft=4;spacingRight=4;overflow=hidden;rotatable=0;points=[[0,0.5],[1,0.5]];portConstraint=eastwest;whiteSpace=wrap;html=1;" parent="5Migwdwcm8lPXjOvwGc1-4" vertex="1">
          <mxGeometry y="152" width="390" height="26" as="geometry" />
        </mxCell>
        <mxCell id="JTOicDsAA7wBTVZqYbhQ-27" value="+ is_alive(): bool" style="text;strokeColor=none;fillColor=none;align=left;verticalAlign=top;spacingLeft=4;spacingRight=4;overflow=hidden;rotatable=0;points=[[0,0.5],[1,0.5]];portConstraint=eastwest;whiteSpace=wrap;html=1;" parent="5Migwdwcm8lPXjOvwGc1-4" vertex="1">
          <mxGeometry y="178" width="390" height="26" as="geometry" />
        </mxCell>
        <mxCell id="-CMYz6q26D09Ii1cd2it-1" value="+ get_health_percent(): float" style="text;strokeColor=none;fillColor=none;align=left;verticalAlign=top;spacingLeft=4;spacingRight=4;overflow=hidden;rotatable=0;points=[[0,0.5],[1,0.5]];portConstraint=eastwest;whiteSpace=wrap;html=1;" vertex="1" parent="5Migwdwcm8lPXjOvwGc1-4">
          <mxGeometry y="204" width="390" height="26" as="geometry" />
        </mxCell>
        <mxCell id="JTOicDsAA7wBTVZqYbhQ-26" value="+ get_health(): int" style="text;strokeColor=none;fillColor=none;align=left;verticalAlign=top;spacingLeft=4;spacingRight=4;overflow=hidden;rotatable=0;points=[[0,0.5],[1,0.5]];portConstraint=eastwest;whiteSpace=wrap;html=1;" parent="5Migwdwcm8lPXjOvwGc1-4" vertex="1">
          <mxGeometry y="230" width="390" height="26" as="geometry" />
        </mxCell>
        <mxCell id="PLBqwa0PCcQ4UnEFB9JK-1" value="&lt;span style=&quot;font-weight: normal;&quot;&gt;+ get_max_health(): int&lt;/span&gt;" style="text;strokeColor=none;fillColor=none;align=left;verticalAlign=top;spacingLeft=4;spacingRight=4;overflow=hidden;rotatable=0;points=[[0,0.5],[1,0.5]];portConstraint=eastwest;whiteSpace=wrap;html=1;fontStyle=1" parent="5Migwdwcm8lPXjOvwGc1-4" vertex="1">
          <mxGeometry y="256" width="390" height="26" as="geometry" />
        </mxCell>
        <mxCell id="5Migwdwcm8lPXjOvwGc1-8" value="&lt;span style=&quot;font-weight: normal;&quot;&gt;&lt;i&gt;+ attack(attacked_creature: Creature)&lt;/i&gt;&lt;/span&gt;" style="text;strokeColor=none;fillColor=none;align=left;verticalAlign=top;spacingLeft=4;spacingRight=4;overflow=hidden;rotatable=0;points=[[0,0.5],[1,0.5]];portConstraint=eastwest;whiteSpace=wrap;html=1;fontStyle=1" parent="5Migwdwcm8lPXjOvwGc1-4" vertex="1">
          <mxGeometry y="282" width="390" height="26" as="geometry" />
        </mxCell>
        <mxCell id="5Migwdwcm8lPXjOvwGc1-18" style="rounded=0;orthogonalLoop=1;jettySize=auto;html=1;endArrow=block;endFill=1;" parent="1" source="5Migwdwcm8lPXjOvwGc1-9" target="5Migwdwcm8lPXjOvwGc1-4" edge="1">
          <mxGeometry relative="1" as="geometry" />
        </mxCell>
        <mxCell id="5Migwdwcm8lPXjOvwGc1-9" value="Human" style="swimlane;fontStyle=1;align=center;verticalAlign=top;childLayout=stackLayout;horizontal=1;startSize=26;horizontalStack=0;resizeParent=1;resizeParentMax=0;resizeLast=0;collapsible=1;marginBottom=0;whiteSpace=wrap;html=1;" parent="1" vertex="1">
          <mxGeometry x="440" y="260" width="340" height="190" as="geometry" />
        </mxCell>
        <mxCell id="5Migwdwcm8lPXjOvwGc1-10" value="- occupation: string" style="text;strokeColor=none;fillColor=none;align=left;verticalAlign=top;spacingLeft=4;spacingRight=4;overflow=hidden;rotatable=0;points=[[0,0.5],[1,0.5]];portConstraint=eastwest;whiteSpace=wrap;html=1;" parent="5Migwdwcm8lPXjOvwGc1-9" vertex="1">
          <mxGeometry y="26" width="340" height="26" as="geometry" />
        </mxCell>
        <mxCell id="5Migwdwcm8lPXjOvwGc1-14" value="- born_year: int" style="text;strokeColor=none;fillColor=none;align=left;verticalAlign=top;spacingLeft=4;spacingRight=4;overflow=hidden;rotatable=0;points=[[0,0.5],[1,0.5]];portConstraint=eastwest;whiteSpace=wrap;html=1;" parent="5Migwdwcm8lPXjOvwGc1-9" vertex="1">
          <mxGeometry y="52" width="340" height="26" as="geometry" />
        </mxCell>
        <mxCell id="5Migwdwcm8lPXjOvwGc1-11" value="" style="line;strokeWidth=1;fillColor=none;align=left;verticalAlign=middle;spacingTop=-1;spacingLeft=3;spacingRight=3;rotatable=0;labelPosition=right;points=[];portConstraint=eastwest;strokeColor=inherit;" parent="5Migwdwcm8lPXjOvwGc1-9" vertex="1">
          <mxGeometry y="78" width="340" height="8" as="geometry" />
        </mxCell>
        <mxCell id="5Migwdwcm8lPXjOvwGc1-12" value="+ Human(name: string, occupation: string, born_year: int)" style="text;strokeColor=none;fillColor=none;align=left;verticalAlign=top;spacingLeft=4;spacingRight=4;overflow=hidden;rotatable=0;points=[[0,0.5],[1,0.5]];portConstraint=eastwest;whiteSpace=wrap;html=1;" parent="5Migwdwcm8lPXjOvwGc1-9" vertex="1">
          <mxGeometry y="86" width="340" height="26" as="geometry" />
        </mxCell>
        <mxCell id="5Migwdwcm8lPXjOvwGc1-13" value="+ get_occupation(): string" style="text;strokeColor=none;fillColor=none;align=left;verticalAlign=top;spacingLeft=4;spacingRight=4;overflow=hidden;rotatable=0;points=[[0,0.5],[1,0.5]];portConstraint=eastwest;whiteSpace=wrap;html=1;" parent="5Migwdwcm8lPXjOvwGc1-9" vertex="1">
          <mxGeometry y="112" width="340" height="26" as="geometry" />
        </mxCell>
        <mxCell id="5Migwdwcm8lPXjOvwGc1-16" value="+&amp;nbsp;get_birth_year&lt;span style=&quot;background-color: initial;&quot;&gt;(): int&lt;/span&gt;" style="text;strokeColor=none;fillColor=none;align=left;verticalAlign=top;spacingLeft=4;spacingRight=4;overflow=hidden;rotatable=0;points=[[0,0.5],[1,0.5]];portConstraint=eastwest;whiteSpace=wrap;html=1;" parent="5Migwdwcm8lPXjOvwGc1-9" vertex="1">
          <mxGeometry y="138" width="340" height="26" as="geometry" />
        </mxCell>
        <mxCell id="JTOicDsAA7wBTVZqYbhQ-15" value="+ attack(attacked_creature: Creature)" style="text;strokeColor=none;fillColor=none;align=left;verticalAlign=top;spacingLeft=4;spacingRight=4;overflow=hidden;rotatable=0;points=[[0,0.5],[1,0.5]];portConstraint=eastwest;whiteSpace=wrap;html=1;" parent="5Migwdwcm8lPXjOvwGc1-9" vertex="1">
          <mxGeometry y="164" width="340" height="26" as="geometry" />
        </mxCell>
        <mxCell id="5Migwdwcm8lPXjOvwGc1-38" style="rounded=0;orthogonalLoop=1;jettySize=auto;html=1;" parent="1" source="5Migwdwcm8lPXjOvwGc1-19" target="5Migwdwcm8lPXjOvwGc1-4" edge="1">
          <mxGeometry relative="1" as="geometry" />
        </mxCell>
        <mxCell id="5Migwdwcm8lPXjOvwGc1-19" value="Bat" style="swimlane;fontStyle=1;align=center;verticalAlign=top;childLayout=stackLayout;horizontal=1;startSize=26;horizontalStack=0;resizeParent=1;resizeParentMax=0;resizeLast=0;collapsible=1;marginBottom=0;whiteSpace=wrap;html=1;" parent="1" vertex="1">
          <mxGeometry x="60" y="260" width="300" height="216" as="geometry" />
        </mxCell>
        <mxCell id="5Migwdwcm8lPXjOvwGc1-20" value="- wing_span: int" style="text;strokeColor=none;fillColor=none;align=left;verticalAlign=top;spacingLeft=4;spacingRight=4;overflow=hidden;rotatable=0;points=[[0,0.5],[1,0.5]];portConstraint=eastwest;whiteSpace=wrap;html=1;" parent="5Migwdwcm8lPXjOvwGc1-19" vertex="1">
          <mxGeometry y="26" width="300" height="26" as="geometry" />
        </mxCell>
        <mxCell id="5Migwdwcm8lPXjOvwGc1-21" value="- flight_speed: int" style="text;strokeColor=none;fillColor=none;align=left;verticalAlign=top;spacingLeft=4;spacingRight=4;overflow=hidden;rotatable=0;points=[[0,0.5],[1,0.5]];portConstraint=eastwest;whiteSpace=wrap;html=1;" parent="5Migwdwcm8lPXjOvwGc1-19" vertex="1">
          <mxGeometry y="52" width="300" height="26" as="geometry" />
        </mxCell>
        <mxCell id="5Migwdwcm8lPXjOvwGc1-22" value="" style="line;strokeWidth=1;fillColor=none;align=left;verticalAlign=middle;spacingTop=-1;spacingLeft=3;spacingRight=3;rotatable=0;labelPosition=right;points=[];portConstraint=eastwest;strokeColor=inherit;" parent="5Migwdwcm8lPXjOvwGc1-19" vertex="1">
          <mxGeometry y="78" width="300" height="8" as="geometry" />
        </mxCell>
        <mxCell id="5Migwdwcm8lPXjOvwGc1-23" value="+ Bat(name: string, wing_span: int, flight_speed: int)" style="text;strokeColor=none;fillColor=none;align=left;verticalAlign=top;spacingLeft=4;spacingRight=4;overflow=hidden;rotatable=0;points=[[0,0.5],[1,0.5]];portConstraint=eastwest;whiteSpace=wrap;html=1;" parent="5Migwdwcm8lPXjOvwGc1-19" vertex="1">
          <mxGeometry y="86" width="300" height="26" as="geometry" />
        </mxCell>
        <mxCell id="5Migwdwcm8lPXjOvwGc1-25" value="+ get_fly_speed(): int" style="text;strokeColor=none;fillColor=none;align=left;verticalAlign=top;spacingLeft=4;spacingRight=4;overflow=hidden;rotatable=0;points=[[0,0.5],[1,0.5]];portConstraint=eastwest;whiteSpace=wrap;html=1;" parent="5Migwdwcm8lPXjOvwGc1-19" vertex="1">
          <mxGeometry y="112" width="300" height="26" as="geometry" />
        </mxCell>
        <mxCell id="HYpsMmqq3qoeSgYdhlTg-1" value="+ get_wing_span(): int" style="text;strokeColor=none;fillColor=none;align=left;verticalAlign=top;spacingLeft=4;spacingRight=4;overflow=hidden;rotatable=0;points=[[0,0.5],[1,0.5]];portConstraint=eastwest;whiteSpace=wrap;html=1;" parent="5Migwdwcm8lPXjOvwGc1-19" vertex="1">
          <mxGeometry y="138" width="300" height="26" as="geometry" />
        </mxCell>
        <mxCell id="5Migwdwcm8lPXjOvwGc1-26" value="+ change_flight_speed(speed: int): void" style="text;strokeColor=none;fillColor=none;align=left;verticalAlign=top;spacingLeft=4;spacingRight=4;overflow=hidden;rotatable=0;points=[[0,0.5],[1,0.5]];portConstraint=eastwest;whiteSpace=wrap;html=1;" parent="5Migwdwcm8lPXjOvwGc1-19" vertex="1">
          <mxGeometry y="164" width="300" height="26" as="geometry" />
        </mxCell>
        <mxCell id="JTOicDsAA7wBTVZqYbhQ-14" value="+ attack(attacked_creature: Creature)" style="text;strokeColor=none;fillColor=none;align=left;verticalAlign=top;spacingLeft=4;spacingRight=4;overflow=hidden;rotatable=0;points=[[0,0.5],[1,0.5]];portConstraint=eastwest;whiteSpace=wrap;html=1;" parent="5Migwdwcm8lPXjOvwGc1-19" vertex="1">
          <mxGeometry y="190" width="300" height="26" as="geometry" />
        </mxCell>
        <mxCell id="5Migwdwcm8lPXjOvwGc1-36" style="rounded=0;orthogonalLoop=1;jettySize=auto;html=1;" parent="1" source="5Migwdwcm8lPXjOvwGc1-27" target="5Migwdwcm8lPXjOvwGc1-9" edge="1">
          <mxGeometry relative="1" as="geometry" />
        </mxCell>
        <mxCell id="5Migwdwcm8lPXjOvwGc1-37" style="rounded=0;orthogonalLoop=1;jettySize=auto;html=1;" parent="1" source="5Migwdwcm8lPXjOvwGc1-27" target="5Migwdwcm8lPXjOvwGc1-19" edge="1">
          <mxGeometry relative="1" as="geometry" />
        </mxCell>
        <mxCell id="5Migwdwcm8lPXjOvwGc1-27" value="Vampire" style="swimlane;fontStyle=1;align=center;verticalAlign=top;childLayout=stackLayout;horizontal=1;startSize=26;horizontalStack=0;resizeParent=1;resizeParentMax=0;resizeLast=0;collapsible=1;marginBottom=0;whiteSpace=wrap;html=1;" parent="1" vertex="1">
          <mxGeometry x="180" y="540" width="430" height="86" as="geometry" />
        </mxCell>
        <mxCell id="5Migwdwcm8lPXjOvwGc1-30" value="" style="line;strokeWidth=1;fillColor=none;align=left;verticalAlign=middle;spacingTop=-1;spacingLeft=3;spacingRight=3;rotatable=0;labelPosition=right;points=[];portConstraint=eastwest;strokeColor=inherit;" parent="5Migwdwcm8lPXjOvwGc1-27" vertex="1">
          <mxGeometry y="26" width="430" height="8" as="geometry" />
        </mxCell>
        <mxCell id="5Migwdwcm8lPXjOvwGc1-31" value="+&amp;nbsp;Vampire(name: string, occupation: string, wing_span: int, flight_speed: int)" style="text;strokeColor=none;fillColor=none;align=left;verticalAlign=top;spacingLeft=4;spacingRight=4;overflow=hidden;rotatable=0;points=[[0,0.5],[1,0.5]];portConstraint=eastwest;whiteSpace=wrap;html=1;" parent="5Migwdwcm8lPXjOvwGc1-27" vertex="1">
          <mxGeometry y="34" width="430" height="26" as="geometry" />
        </mxCell>
        <mxCell id="JTOicDsAA7wBTVZqYbhQ-16" value="+ attack(attacked_creature: Creature)" style="text;strokeColor=none;fillColor=none;align=left;verticalAlign=top;spacingLeft=4;spacingRight=4;overflow=hidden;rotatable=0;points=[[0,0.5],[1,0.5]];portConstraint=eastwest;whiteSpace=wrap;html=1;" parent="5Migwdwcm8lPXjOvwGc1-27" vertex="1">
          <mxGeometry y="60" width="430" height="26" as="geometry" />
        </mxCell>
        <mxCell id="Ocg9Glk-y3uKr-0C467c-2" value="Team" style="swimlane;fontStyle=1;align=center;verticalAlign=top;childLayout=stackLayout;horizontal=1;startSize=26;horizontalStack=0;resizeParent=1;resizeParentMax=0;resizeLast=0;collapsible=1;marginBottom=0;whiteSpace=wrap;html=1;" parent="1" vertex="1">
          <mxGeometry x="850" y="90" width="390" height="216" as="geometry" />
        </mxCell>
        <mxCell id="Ocg9Glk-y3uKr-0C467c-3" value="- creatures:&amp;nbsp;list[Creature]" style="text;strokeColor=none;fillColor=none;align=left;verticalAlign=top;spacingLeft=4;spacingRight=4;overflow=hidden;rotatable=0;points=[[0,0.5],[1,0.5]];portConstraint=eastwest;whiteSpace=wrap;html=1;" parent="Ocg9Glk-y3uKr-0C467c-2" vertex="1">
          <mxGeometry y="26" width="390" height="26" as="geometry" />
        </mxCell>
        <mxCell id="Ocg9Glk-y3uKr-0C467c-6" value="" style="line;strokeWidth=1;fillColor=none;align=left;verticalAlign=middle;spacingTop=-1;spacingLeft=3;spacingRight=3;rotatable=0;labelPosition=right;points=[];portConstraint=eastwest;strokeColor=inherit;" parent="Ocg9Glk-y3uKr-0C467c-2" vertex="1">
          <mxGeometry y="52" width="390" height="8" as="geometry" />
        </mxCell>
        <mxCell id="Ocg9Glk-y3uKr-0C467c-7" value="+ Team()" style="text;strokeColor=none;fillColor=none;align=left;verticalAlign=top;spacingLeft=4;spacingRight=4;overflow=hidden;rotatable=0;points=[[0,0.5],[1,0.5]];portConstraint=eastwest;whiteSpace=wrap;html=1;" parent="Ocg9Glk-y3uKr-0C467c-2" vertex="1">
          <mxGeometry y="60" width="390" height="26" as="geometry" />
        </mxCell>
        <mxCell id="Ocg9Glk-y3uKr-0C467c-8" value="+ add(Creature creature): void" style="text;strokeColor=none;fillColor=none;align=left;verticalAlign=top;spacingLeft=4;spacingRight=4;overflow=hidden;rotatable=0;points=[[0,0.5],[1,0.5]];portConstraint=eastwest;whiteSpace=wrap;html=1;" parent="Ocg9Glk-y3uKr-0C467c-2" vertex="1">
          <mxGeometry y="86" width="390" height="26" as="geometry" />
        </mxCell>
        <mxCell id="Ocg9Glk-y3uKr-0C467c-15" value="+ get_alive_members(): vector&amp;lt;Creature&amp;gt;" style="text;strokeColor=none;fillColor=none;align=left;verticalAlign=top;spacingLeft=4;spacingRight=4;overflow=hidden;rotatable=0;points=[[0,0.5],[1,0.5]];portConstraint=eastwest;whiteSpace=wrap;html=1;" parent="Ocg9Glk-y3uKr-0C467c-2" vertex="1">
          <mxGeometry y="112" width="390" height="26" as="geometry" />
        </mxCell>
        <mxCell id="Ocg9Glk-y3uKr-0C467c-26" value="+ get_defender(): Creature" style="text;strokeColor=none;fillColor=none;align=left;verticalAlign=top;spacingLeft=4;spacingRight=4;overflow=hidden;rotatable=0;points=[[0,0.5],[1,0.5]];portConstraint=eastwest;whiteSpace=wrap;html=1;" parent="Ocg9Glk-y3uKr-0C467c-2" vertex="1">
          <mxGeometry y="138" width="390" height="26" as="geometry" />
        </mxCell>
        <mxCell id="Ocg9Glk-y3uKr-0C467c-9" value="+ attack(Team other_team): void" style="text;strokeColor=none;fillColor=none;align=left;verticalAlign=top;spacingLeft=4;spacingRight=4;overflow=hidden;rotatable=0;points=[[0,0.5],[1,0.5]];portConstraint=eastwest;whiteSpace=wrap;html=1;" parent="Ocg9Glk-y3uKr-0C467c-2" vertex="1">
          <mxGeometry y="164" width="390" height="26" as="geometry" />
        </mxCell>
        <mxCell id="Ocg9Glk-y3uKr-0C467c-11" value="+ is_at_least_one_alive_member(): bool" style="text;strokeColor=none;fillColor=none;align=left;verticalAlign=top;spacingLeft=4;spacingRight=4;overflow=hidden;rotatable=0;points=[[0,0.5],[1,0.5]];portConstraint=eastwest;whiteSpace=wrap;html=1;" parent="Ocg9Glk-y3uKr-0C467c-2" vertex="1">
          <mxGeometry y="190" width="390" height="26" as="geometry" />
        </mxCell>
        <mxCell id="Ocg9Glk-y3uKr-0C467c-16" value="Simulation" style="swimlane;fontStyle=1;align=center;verticalAlign=top;childLayout=stackLayout;horizontal=1;startSize=26;horizontalStack=0;resizeParent=1;resizeParentMax=0;resizeLast=0;collapsible=1;marginBottom=0;whiteSpace=wrap;html=1;" parent="1" vertex="1">
          <mxGeometry x="850" y="410" width="390" height="216" as="geometry" />
        </mxCell>
        <mxCell id="Ocg9Glk-y3uKr-0C467c-17" value="- teamA: Team" style="text;strokeColor=none;fillColor=none;align=left;verticalAlign=top;spacingLeft=4;spacingRight=4;overflow=hidden;rotatable=0;points=[[0,0.5],[1,0.5]];portConstraint=eastwest;whiteSpace=wrap;html=1;" parent="Ocg9Glk-y3uKr-0C467c-16" vertex="1">
          <mxGeometry y="26" width="390" height="26" as="geometry" />
        </mxCell>
        <mxCell id="Ocg9Glk-y3uKr-0C467c-25" value="- teamB: Team" style="text;strokeColor=none;fillColor=none;align=left;verticalAlign=top;spacingLeft=4;spacingRight=4;overflow=hidden;rotatable=0;points=[[0,0.5],[1,0.5]];portConstraint=eastwest;whiteSpace=wrap;html=1;" parent="Ocg9Glk-y3uKr-0C467c-16" vertex="1">
          <mxGeometry y="52" width="390" height="26" as="geometry" />
        </mxCell>
        <mxCell id="Ocg9Glk-y3uKr-0C467c-18" value="" style="line;strokeWidth=1;fillColor=none;align=left;verticalAlign=middle;spacingTop=-1;spacingLeft=3;spacingRight=3;rotatable=0;labelPosition=right;points=[];portConstraint=eastwest;strokeColor=inherit;" parent="Ocg9Glk-y3uKr-0C467c-16" vertex="1">
          <mxGeometry y="78" width="390" height="8" as="geometry" />
        </mxCell>
        <mxCell id="Ocg9Glk-y3uKr-0C467c-19" value="+&amp;nbsp;Simulation(team_a: Team, team_b: Team)" style="text;strokeColor=none;fillColor=none;align=left;verticalAlign=top;spacingLeft=4;spacingRight=4;overflow=hidden;rotatable=0;points=[[0,0.5],[1,0.5]];portConstraint=eastwest;whiteSpace=wrap;html=1;" parent="Ocg9Glk-y3uKr-0C467c-16" vertex="1">
          <mxGeometry y="86" width="390" height="26" as="geometry" />
        </mxCell>
        <mxCell id="Ocg9Glk-y3uKr-0C467c-20" value="+ execute_round(): void" style="text;strokeColor=none;fillColor=none;align=left;verticalAlign=top;spacingLeft=4;spacingRight=4;overflow=hidden;rotatable=0;points=[[0,0.5],[1,0.5]];portConstraint=eastwest;whiteSpace=wrap;html=1;" parent="Ocg9Glk-y3uKr-0C467c-16" vertex="1">
          <mxGeometry y="112" width="390" height="26" as="geometry" />
        </mxCell>
        <mxCell id="Ocg9Glk-y3uKr-0C467c-21" value="+ has_ended(): bool" style="text;strokeColor=none;fillColor=none;align=left;verticalAlign=top;spacingLeft=4;spacingRight=4;overflow=hidden;rotatable=0;points=[[0,0.5],[1,0.5]];portConstraint=eastwest;whiteSpace=wrap;html=1;" parent="Ocg9Glk-y3uKr-0C467c-16" vertex="1">
          <mxGeometry y="138" width="390" height="26" as="geometry" />
        </mxCell>
        <mxCell id="-CMYz6q26D09Ii1cd2it-2" value="+ execute(): void" style="text;strokeColor=none;fillColor=none;align=left;verticalAlign=top;spacingLeft=4;spacingRight=4;overflow=hidden;rotatable=0;points=[[0,0.5],[1,0.5]];portConstraint=eastwest;whiteSpace=wrap;html=1;" vertex="1" parent="Ocg9Glk-y3uKr-0C467c-16">
          <mxGeometry y="164" width="390" height="26" as="geometry" />
        </mxCell>
        <mxCell id="-CMYz6q26D09Ii1cd2it-3" value="+ get_winner(): Team" style="text;strokeColor=none;fillColor=none;align=left;verticalAlign=top;spacingLeft=4;spacingRight=4;overflow=hidden;rotatable=0;points=[[0,0.5],[1,0.5]];portConstraint=eastwest;whiteSpace=wrap;html=1;" vertex="1" parent="Ocg9Glk-y3uKr-0C467c-16">
          <mxGeometry y="190" width="390" height="26" as="geometry" />
        </mxCell>
      </root>
    </mxGraphModel>
  </diagram>
</mxfile>
